<svg width="140" height="36" viewBox="0 0 140 36" fill="none" xmlns="http://www.w3.org/2000/svg">
<path d="M110.852 34.9344H107.574C107.021 34.9344 106.574 34.4867 106.574 33.9344V15.0499C106.574 14.984 106.58 14.9183 106.593 14.8537L106.951 13.0656L107.705 10.8033L108.429 8.99245C108.449 8.94293 108.473 8.89508 108.5 8.84935L109.59 7.03281L111.029 5.23433C111.075 5.17666 111.127 5.12428 111.185 5.07815L112.984 3.63937L114.8 2.54944C114.846 2.52201 114.894 2.49827 114.943 2.47846L116.754 1.75412L118.46 1.07155C118.579 1.0243 118.705 1.00002 118.832 1.00002L136.323 1C136.589 1 136.843 1.10536 137.031 1.29289L137.492 1.7541L138.246 2.5082L138.707 2.9694C138.895 3.15694 139 3.41129 139 3.67651V33.9344C139 34.4867 138.552 34.9344 138 34.9344H133.967C133.415 34.9344 132.967 34.4867 132.967 33.9344V27.6393C132.967 27.0871 132.519 26.6393 131.967 26.6393H112.852C112.3 26.6393 111.852 27.0871 111.852 27.6393V33.9344C111.852 34.4867 111.405 34.9344 110.852 34.9344Z" fill="white" stroke="white"/>
<path d="M132.361 20.5738H114C113.448 20.5738 113 20.1261 113 19.5738V15.2951V14.7033C113 14.5958 113.017 14.489 113.051 14.387L113.712 12.4057C113.74 12.3214 113.779 12.2412 113.828 12.1673L115.207 10.0988C115.244 10.044 115.286 9.99294 115.332 9.94638L116.016 9.2623L116.323 8.95526C116.37 8.9087 116.421 8.86685 116.476 8.83032L117.525 8.13115L118.935 7.42614C119 7.39351 119.068 7.36812 119.139 7.35043L120.422 7.02986C120.501 7.01003 120.582 7 120.664 7H132.361C132.913 7 133.361 7.44772 133.361 8V19.5738C133.361 20.1261 132.913 20.5738 132.361 20.5738Z" fill="#535257" stroke="white"/>
<path d="M49.2623 26.2252V8.03282C49.2623 7.48053 49.71 7.03282 50.2623 7.03282H83.705C84.2572 7.03282 84.705 7.48053 84.705 8.03282V33.9345C84.705 34.4867 85.1527 34.9345 85.705 34.9345H89.7377C90.29 34.9345 90.7377 34.4867 90.7377 33.9345V8.03282C90.7377 7.48053 91.1855 7.03282 91.7377 7.03282H102.557C103.11 7.03282 103.557 6.5851 103.557 6.03282V2.00003C103.557 1.44775 103.11 1.00003 102.557 1.00003H46.2459H45.6541C45.5466 1.00003 45.4399 1.01736 45.3379 1.05135L44.7536 1.24609C44.502 1.32996 44.2941 1.51035 44.1754 1.74756L44.0892 1.92003C44.0198 2.05889 43.9836 2.212 43.9836 2.36725V3.26233V27.2964V28.1476V28.9017V29.4197C43.9836 29.5749 44.0198 29.7281 44.0892 29.8669L44.2881 30.2647C44.3362 30.3609 44.3994 30.4486 44.4754 30.5246L45 31.0492C45.076 31.1252 45.1638 31.1885 45.2599 31.2365L45.8689 31.541L46.623 31.9181L47.1659 32.1895C47.3048 32.259 47.4579 32.2951 47.6132 32.2951H48.1312H48.8853H70.8853C71.4376 32.2951 71.8853 31.8474 71.8853 31.2951V28.3935C71.8853 27.8412 71.4376 27.3935 70.8853 27.3935H50.4306C50.1654 27.3935 49.9111 27.2881 49.7235 27.1006L49.5552 26.9323C49.3677 26.7447 49.2623 26.4904 49.2623 26.2252Z" fill="white" stroke="white"/>
<path d="M6.27869 18.1841V31.6722C6.27869 32.2244 5.83097 32.6722 5.27869 32.6722H1.37705C1.16881 32.6722 1 32.5034 1 32.2951V2.13118V1.98716C1 1.61326 1.21125 1.27146 1.54567 1.10424C1.68274 1.03571 1.83388 1.00003 1.98713 1.00003H2.88525H3.63934H4.01639H4.77049C5.01191 1.00003 5.24344 1.09593 5.41416 1.26664L5.4279 1.28039C5.49203 1.34452 5.54673 1.41745 5.59034 1.49698L18.1597 24.4175C18.2735 24.6251 18.4914 24.7541 18.7282 24.7541C18.9576 24.7541 19.1699 24.6329 19.2865 24.4353L32.617 1.84754L32.8779 1.33593C32.983 1.1298 33.1948 1.00003 33.4262 1.00003H34.1803H35.3115H35.8197C36.372 1.00003 36.8197 1.44775 36.8197 2.00003V2.50823L37.1841 31.6597C37.191 32.2168 36.7413 32.6722 36.1841 32.6722H32.1639C31.6117 32.6722 31.1639 32.2244 31.1639 31.6722V18.1841C31.1639 17.1699 29.8283 16.7999 29.3064 17.6696L20.1438 32.9408C19.963 33.242 19.6375 33.4263 19.2863 33.4263H18.1564C17.8051 33.4263 17.4796 33.242 17.2989 32.9408L8.13618 17.6696C7.61437 16.7999 6.27869 17.1699 6.27869 18.1841Z" fill="white" stroke="white"/>
<path d="M51.5247 18.8524V15.5738C51.5247 15.0215 51.9724 14.5738 52.5247 14.5738H67.8689C68.4212 14.5738 68.8689 15.0215 68.8689 15.5738V18.8524C68.8689 19.4047 68.4212 19.8524 67.8689 19.8524H52.5247C51.9724 19.8524 51.5247 19.4047 51.5247 18.8524Z" fill="white" stroke="white"/>
</svg>
